<svg xmlns="http://www.w3.org/2000/svg" version="1.1">
  <line x1="50" y1="50" x2="200" y2="200" style="stroke:blue;stroke-width:2" />
  <polygon points="300.0,150.0 298.4807753012208,158.6824088833465 293.9692620785909,167.10100716628344 286.6025403784439,175.0 276.6044443118978,182.13938048432698 264.27876096865396,188.3022221559489 250.0,193.30127018922192 234.20201433256688,196.9846310392954 217.36481776669305,199.2403876506104 200.0,200.0 182.63518223330698,199.2403876506104 165.79798566743315,196.98463103929544 150.0,193.30127018922195 135.72123903134604,188.3022221559489 123.3955556881022,182.13938048432698 113.39745962155615,175.00000000000003 106.03073792140917,167.10100716628344 101.5192246987792,158.6824088833465 100.0,150.0 101.51922469877918,141.3175911166535 106.03073792140916,132.89899283371656 113.39745962155614,125.0 123.39555568810216,117.86061951567305 135.72123903134604,111.6977778440511 149.99999999999994,106.69872981077808 165.79798566743315,103.01536896070458 182.63518223330698,100.7596123493896 199.99999999999997,100.0 217.364817766693,100.75961234938958 234.2020143325669,103.01536896070459 249.99999999999994,106.69872981077805 264.27876096865396,111.6977778440511 276.6044443118978,117.86061951567302 286.6025403784439,125.00000000000001 293.9692620785909,132.89899283371656 298.4807753012208,141.3175911166535" style="fill:blue;stroke:red;stroke-width:1" />
  <polygon points="600.0,150.0 598.4807753012208,158.6824088833465 593.9692620785909,167.10100716628344 586.6025403784439,175.0 576.6044443118979,182.13938048432698 564.278760968654,188.3022221559489 550.0,193.30127018922192 534.2020143325669,196.9846310392954 517.364817766693,199.2403876506104 500.0,200.0 482.635182233307,199.2403876506104 465.7979856674332,196.98463103929544 450.0,193.30127018922195 435.72123903134604,188.3022221559489 423.3955556881022,182.13938048432698 413.39745962155615,175.00000000000003 406.0307379214092,167.10100716628344 401.5192246987792,158.6824088833465 400.0,150.0 401.51922469877917,141.3175911166535 406.0307379214091,132.89899283371656 413.39745962155615,125.0 423.39555568810215,117.86061951567305 435.72123903134604,111.6977778440511 449.99999999999994,106.69872981077808 465.7979856674331,103.01536896070458 482.635182233307,100.7596123493896 500.0,100.0 517.364817766693,100.75961234938958 534.2020143325669,103.01536896070459 549.9999999999999,106.69872981077805 564.278760968654,111.6977778440511 576.6044443118977,117.86061951567302 586.6025403784439,125.00000000000001 593.9692620785909,132.89899283371656 598.4807753012208,141.3175911166535" style="fill:blue;stroke:red;stroke-width:1" />
</svg>