<svg xmlns="http://www.w3.org/2000/svg" version="1.1">
  <line x1="29.0" y1="74.0" x2="92.0" y2="15.0" style="stroke:blue;stroke-width:2" />
  <line x1="76.0" y1="138.0" x2="101.0" y2="80.0" style="stroke:blue;stroke-width:2" />
  <line x1="308.0" y1="70.0" x2="379.0" y2="44.0" style="stroke:blue;stroke-width:2" />
  <polygon points="410.0,106.5 409.6657705662686,108.67060222083663 408.67323765729,110.77525179157085 407.05255888325763,112.75 404.8529777486175,114.53484512108174 402.14132741310385,116.07555553898723 399.0,117.32531754730549 395.5244431531647,118.24615775982386 391.8202599086725,118.8100969126526 388.0,119.0 384.1797400913275,118.8100969126526 380.4755568468353,118.24615775982386 377.0,117.32531754730549 373.85867258689615,116.07555553898723 371.1470222513825,114.53484512108174 368.94744111674237,112.75 367.32676234271,110.77525179157087 366.3342294337314,108.67060222083663 366.0,106.5 366.3342294337314,104.32939777916337 367.32676234271,102.22474820842915 368.94744111674237,100.25 371.14702225138245,98.46515487891827 373.85867258689615,96.92444446101277 377.0,95.67468245269453 380.4755568468353,94.75384224017614 384.1797400913275,94.1899030873474 388.0,94.0 391.8202599086725,94.1899030873474 395.5244431531647,94.75384224017614 399.0,95.67468245269451 402.14132741310385,96.92444446101277 404.8529777486175,98.46515487891826 407.05255888325763,100.25 408.67323765729,102.22474820842915 409.6657705662686,104.32939777916337" style="fill:blue;stroke:red;stroke-width:1" />
  <polygon points="251.0,162.0 250.92403876506103,166.86214897467406 250.69846310392956,171.5765640131187 250.33012701892218,176.0 249.8302222155949,179.9980530712231 249.2139380484327,183.44924440733138 248.5,186.2487113059643 247.71010071662835,188.31139338200543 246.86824088833464,189.5746170843418 246.0,190.0 245.13175911166536,189.5746170843418 244.28989928337165,188.31139338200543 243.5,186.2487113059643 242.7860619515673,183.44924440733138 242.1697777844051,179.9980530712231 241.66987298107782,176.0 241.30153689607044,171.57656401311874 241.07596123493897,166.86214897467406 241.0,162.0 241.07596123493897,157.13785102532597 241.30153689607044,152.4234359868813 241.66987298107782,148.0 242.1697777844051,144.0019469287769 242.7860619515673,140.55075559266862 243.5,137.75128869403574 244.28989928337165,135.68860661799457 245.13175911166536,134.4253829156582 246.0,134.0 246.86824088833464,134.42538291565816 247.71010071662835,135.68860661799457 248.5,137.7512886940357 249.2139380484327,140.55075559266862 249.8302222155949,144.0019469287769 250.33012701892218,148.0 250.69846310392956,152.4234359868813 250.92403876506103,157.13785102532594" style="fill:blue;stroke:red;stroke-width:1" />
  <polygon points="266.0,82.0 265.69615506024417,84.2574263096701 264.79385241571816,86.44626186323369 263.3205080756888,88.5 261.32088886237955,90.35623892592501 258.8557521937308,91.95857776054672 256.0,93.2583302491977 252.8404028665134,94.21600407021681 249.47296355333862,94.8025007891587 246.0,95.0 242.52703644666138,94.8025007891587 239.15959713348664,94.21600407021681 236.0,93.2583302491977 233.14424780626922,91.95857776054672 230.67911113762045,90.35623892592501 228.67949192431124,88.5 227.20614758428184,86.4462618632337 226.30384493975583,84.2574263096701 226.0,82.0 226.30384493975583,79.7425736903299 227.20614758428184,77.55373813676631 228.67949192431124,75.5 230.67911113762042,73.643761074075 233.14424780626922,72.04142223945328 236.0,70.7416697508023 239.15959713348664,69.78399592978319 242.52703644666138,69.1974992108413 246.0,69.0 249.4729635533386,69.1974992108413 252.8404028665134,69.78399592978319 256.0,70.74166975080229 258.8557521937308,72.04142223945328 261.32088886237955,73.64376107407499 263.3205080756888,75.5 264.79385241571816,77.55373813676631 265.69615506024417,79.7425736903299" style="fill:blue;stroke:red;stroke-width:1" />
  <polygon points="227.0,51.5 226.67336668976247,52.802361332501974 225.70339134689704,54.06515107494251 224.11954618136542,55.25 221.96995552705803,56.32090707264904 219.31993360826058,57.24533332339234 216.25,57.99519052838329 212.8534330815019,58.54769465589431 209.233435819839,58.88605814759156 205.5,59.0 201.766564180161,58.88605814759156 198.14656691849814,58.54769465589431 194.75,57.99519052838329 191.68006639173942,57.24533332339234 189.03004447294197,56.32090707264905 186.88045381863458,55.25 185.29660865310296,54.06515107494252 184.32663331023753,52.802361332501974 184.0,51.5 184.32663331023753,50.197638667498026 185.29660865310296,48.93484892505749 186.88045381863458,47.75 189.03004447294197,46.67909292735096 191.6800663917394,45.75466667660767 194.75,45.00480947161671 198.14656691849814,44.45230534410569 201.766564180161,44.11394185240844 205.5,44.0 209.233435819839,44.11394185240844 212.8534330815019,44.45230534410569 216.25,45.00480947161671 219.31993360826058,45.75466667660766 221.96995552705803,46.67909292735095 224.11954618136542,47.75 225.70339134689704,48.93484892505749 226.67336668976247,50.19763866749802" style="fill:blue;stroke:red;stroke-width:1" />
  <line x1="20.0" y1="28.0" x2="72.0" y2="83.0" style="stroke:blue;stroke-width:2" />
</svg>